<svg xmlns="http://www.w3.org/2000/svg" width="79" height="60.425" viewBox="0 0 79 60.425">
  <g id="Grupo_73" data-name="Grupo 73" transform="translate(238 -358.575)">
    <path id="Caminho_77" data-name="Caminho 77" d="M-234.855,375a11.712,11.712,0,0,0-3.771,5.941v9.578c0,.989,1.384,3.6,3.318,5.2a14.259,14.259,0,0,0,5.128,2.489s50.757.075,54.679,0a10.488,10.488,0,0,0,5.785-2.489,10.611,10.611,0,0,0,3.266-5.2c.226-.973,0-9.05,0-9.05s-.815-4.389-4.246-6.469c-1.743-1.057-17.213,4.45-33.335,4.727C-219.1,379.986-234.855,375-234.855,375Z" transform="translate(4 4)" fill="#64b5f6" stroke="#303030" stroke-width="2"/>
    <g id="Grupo_3" data-name="Grupo 3" transform="translate(21.942 -6.252)">
      <path id="Caminho_74" data-name="Caminho 74" d="M-184.625,389.406c-.065-.344.232-1.248,1.5-1.906,1.851-.968,5.842-1.805,7.047-2.141,1.77-.492,2.266.75,2.266.75s.723,3.4.953,4.375a1.38,1.38,0,0,1-1.172,1.641c-.625.172-8.7-1.141-9.437-1.25a1.441,1.441,0,0,1-1.031-.828Z" transform="translate(-17.895 8.925)" fill="#303030"/>
      <path id="Caminho_75" data-name="Caminho 75" d="M-175.236,386.592a.774.774,0,0,1,.488.345l.609,3.067a.477.477,0,0,1-.236.517,3.348,3.348,0,0,1-1.328,0l-6.784-.8s-.776-.008-.792-.609a.736.736,0,0,1,.569-.731l5.809-1.442A4.8,4.8,0,0,1-175.236,386.592Z" transform="translate(-17.916 9.032)" fill="#fff"/>
    </g>
    <g id="Grupo_4" data-name="Grupo 4" transform="translate(-228.528 387.917)">
      <path id="Caminho_74-2" data-name="Caminho 74" d="M-172.826,389.406c.065-.344-.232-1.248-1.5-1.906-1.851-.968-5.842-1.805-7.047-2.141-1.77-.492-2.266.75-2.266.75s-.723,3.4-.953,4.375a1.38,1.38,0,0,0,1.172,1.641c.625.172,8.7-1.141,9.438-1.25a1.441,1.441,0,0,0,1.031-.828Z" transform="translate(184.633 -385.244)" fill="#303030"/>
      <path id="Caminho_75-2" data-name="Caminho 75" d="M-182.174,386.592a.774.774,0,0,0-.488.345l-.609,3.067a.477.477,0,0,0,.236.517,3.348,3.348,0,0,0,1.328,0l6.784-.8s.776-.008.792-.609a.736.736,0,0,0-.569-.731l-5.809-1.442A4.8,4.8,0,0,0-182.174,386.592Z" transform="translate(184.613 -385.137)" fill="#fff"/>
    </g>
    <g id="Grupo_5" data-name="Grupo 5" transform="translate(5 4)">
      <rect id="Retângulo_1" data-name="Retângulo 1" width="17.8" height="6.6" transform="translate(-212.05 386)" fill="#4d4d4d"/>
      <g id="Retângulo_2" data-name="Retângulo 2" transform="translate(-214 385)" fill="none" stroke="#303030" stroke-width="2">
        <rect width="20.7" height="8.9" rx="1" stroke="none"/>
        <rect x="1" y="1" width="18.7" height="6.9" fill="none"/>
      </g>
    </g>
    <g id="Grupo_6" data-name="Grupo 6" transform="translate(4 4)">
      <rect id="Retângulo_3" data-name="Retângulo 3" width="8" height="5" transform="translate(-172 369)" fill="#64b5f6"/>
      <g id="Retângulo_4" data-name="Retângulo 4" transform="translate(-173 368)" fill="none" stroke="#303030" stroke-width="1">
        <rect width="10" height="7" rx="1" stroke="none"/>
        <rect x="0.5" y="0.5" width="9" height="6" rx="0.5" fill="none"/>
      </g>
    </g>
    <g id="Grupo_7" data-name="Grupo 7" transform="translate(-65 4)">
      <rect id="Retângulo_3-2" data-name="Retângulo 3" width="8" height="5" transform="translate(-172 369)" fill="#64b5f6"/>
      <g id="Retângulo_4-2" data-name="Retângulo 4" transform="translate(-173 368)" fill="none" stroke="#303030" stroke-width="1">
        <rect width="10" height="7" rx="1" stroke="none"/>
        <rect x="0.5" y="0.5" width="9" height="6" rx="0.5" fill="none"/>
      </g>
    </g>
    <path id="Caminho_76" data-name="Caminho 76" d="M-219.469,355.676l15.838.3s13.559-.605,17.874-.3a10.466,10.466,0,0,1,6.712,2.866c5.216,4.961,7.617,15.235,7.617,15.235v.83a1.983,1.983,0,0,1-.679,1.131,9.17,9.17,0,0,1-4,2.64,29.248,29.248,0,0,1-6.637,1.207h-42.008a21.383,21.383,0,0,1-5.053-1.207,14.6,14.6,0,0,1-3.469-2.64c-.962-.943-.792-.641-1.056-1.131a.77.77,0,0,1,0-.83s4.148-10.483,6.637-13.726S-219.469,355.676-219.469,355.676Z" transform="translate(4 4)" fill="#fff" stroke="#303030" stroke-width="2"/>
    <path id="Caminho_78" data-name="Caminho 78" d="M-238.73,390.845c-.315,3.1.378,8.371,1.854,10.648a10.54,10.54,0,0,0,6.471,4.216H-175.6s4.9-.515,7.255-3.824,1.957-7.863,1.957-11.1c0-.392-.635,1.616-2.321,3.6a10.858,10.858,0,0,1-5.911,3.188c-6.768,1.6-18.415.467-28.335.686-5.678.125-12.1-.049-18.04,0-3.157.027-6.247.609-8.922,0C-236.044,396.862-238.73,390.845-238.73,390.845Z" transform="translate(4 4)" fill="#4d4d4d" stroke="#303030" stroke-width="2"/>
    <g id="Grupo_8" data-name="Grupo 8" transform="translate(4 4)">
      <path id="Retângulo_5" data-name="Retângulo 5" d="M0,0H12a0,0,0,0,1,0,0V7a2,2,0,0,1-2,2H2A2,2,0,0,1,0,7V0A0,0,0,0,1,0,0Z" transform="translate(-231 405)" fill="#4d4d4d"/>
      <g id="Retângulo_6" data-name="Retângulo 6" transform="translate(-232 405)" fill="none" stroke="#303030" stroke-width="2">
        <path d="M0,0H14a0,0,0,0,1,0,0V6a4,4,0,0,1-4,4H4A4,4,0,0,1,0,6V0A0,0,0,0,1,0,0Z" stroke="none"/>
        <path d="M2,1H12a1,1,0,0,1,1,1V6a3,3,0,0,1-3,3H4A3,3,0,0,1,1,6V2A1,1,0,0,1,2,1Z" fill="none"/>
      </g>
    </g>
    <g id="Grupo_9" data-name="Grupo 9" transform="translate(49 4)">
      <path id="Retângulo_5-2" data-name="Retângulo 5" d="M0,0H12a0,0,0,0,1,0,0V6a2,2,0,0,1-2,2H2A2,2,0,0,1,0,6V0A0,0,0,0,1,0,0Z" transform="translate(-231 406)" fill="#4d4d4d"/>
      <g id="Retângulo_6-2" data-name="Retângulo 6" transform="translate(-232 405)" fill="none" stroke="#303030" stroke-width="2">
        <path d="M0,0H14a0,0,0,0,1,0,0V6a4,4,0,0,1-4,4H4A4,4,0,0,1,0,6V0A0,0,0,0,1,0,0Z" stroke="none"/>
        <path d="M2,1H12a1,1,0,0,1,1,1V6a3,3,0,0,1-3,3H4A3,3,0,0,1,1,6V2A1,1,0,0,1,2,1Z" fill="none"/>
      </g>
    </g>
    <path id="Caminho_79" data-name="Caminho 79" d="M-311.933,378.528l10.483-5.581" transform="translate(108 -1.15)" fill="none" stroke="#303030" stroke-linecap="round" stroke-width="2"/>
    <path id="Caminho_80" data-name="Caminho 80" d="M-311.933,378.528l10.483-5.581" transform="translate(110 -7.15)" fill="none" stroke="#303030" stroke-linecap="round" stroke-width="2"/>
  </g>
</svg>
